<svg width="54" height="50" viewBox="0 0 54 50" fill="none" xmlns="http://www.w3.org/2000/svg">
<g clip-path="url(#clip0_364_76)">
<path d="M10.2518 46.0432L7.01439 29.6763H46.9425L43.705 46.0432H10.2518Z" fill="#EFF4FB"/>
<path d="M53.9568 18.8849H40.4676L30.9353 0L29.4964 0.719424L38.6691 18.705H15.4676L24.6403 0.719424L23.0216 0L13.4892 18.8849H0V27.3381H2.33813L7.01439 50H46.9424L51.6187 27.3381H53.9568V18.8849ZM45.5036 48.3813H8.45324L3.95683 27.3381H50L45.5036 48.3813ZM52.3381 25.7194H1.61871V20.5036H52.1583V25.7194H52.3381Z" fill="#3274CC"/>
<path d="M27.6978 32.7338H26.0791V42.9856H27.6978V32.7338Z" fill="#3274CC"/>
<path d="M33.6331 34.3525H32.0144V41.187H33.6331V34.3525Z" fill="#3274CC"/>
<path d="M21.7626 34.3525H20.1439V41.187H21.7626V34.3525Z" fill="#3274CC"/>
</g>
<defs>
<clipPath id="clip0_364_76">
<rect width="53.9568" height="50" fill="white"/>
</clipPath>
</defs>
</svg>
