<svg width="55" height="55" viewBox="0 0 55 55" fill="none" xmlns="http://www.w3.org/2000/svg">
<g clip-path="url(#clip0_364_89)">
<path d="M4.23956 50.875C5.84373 39.5313 15.5833 30.7083 27.3854 30.7083C39.1875 30.7083 49.0416 39.5313 50.5312 50.875H4.23956Z" fill="#EFF4FB"/>
<path d="M33.1146 27.1563C38.2708 24.8646 41.7083 19.8229 41.7083 14.0938C41.7083 6.41667 35.2917 0 27.5 0C19.7083 0 13.2917 6.41667 13.2917 14.2083C13.2917 19.8229 16.6146 24.9792 21.8854 27.2708C9.96875 29.6771 0 40.1042 0 55H55C55 40.2188 45.1458 29.6771 33.1146 27.1563ZM15.0104 14.2083C15.0104 7.33333 20.625 1.71875 27.5 1.71875C34.375 1.71875 39.9896 7.33333 39.9896 14.2083C39.9896 21.0833 34.375 26.5833 27.5 26.5833C20.625 26.5833 15.0104 21.0833 15.0104 14.2083ZM1.71875 53.2812C2.17708 39.4167 13.5208 28.3021 27.5 28.3021C41.4792 28.3021 52.8229 39.4167 53.2812 53.1667H1.71875V53.2812Z" fill="#3274CC"/>
</g>
<defs>
<clipPath id="clip0_364_89">
<rect width="55" height="55" fill="white"/>
</clipPath>
</defs>
</svg>
