<svg width="45" height="45" viewBox="0 0 45 45" fill="none" xmlns="http://www.w3.org/2000/svg">
<g clip-path="url(#clip0_364_83)">
<path d="M3.3 41V1.10001H38.6C37.3 2.30001 37.3 4.40001 38.5 5.70001C39.7 7.00001 41.8 7.00001 43.1 5.80001C43.1 5.80001 43.1 5.80001 43.2 5.70001V41H3.3ZM30.8 18.9C29 18.9 27.6 20.4 27.6 22.1C27.6 23.8 29.1 25.3 30.8 25.3C32.6 25.3 34 23.8 34 22.1C34.1 20.4 32.6 18.9 30.8 18.9ZM13.1 18.9C11.3 18.9 9.9 20.4 9.9 22.1C9.9 23.8 11.4 25.3 13.1 25.3C14.8 25.3 16.3 23.8 16.3 22.1C16.3 20.4 14.8 18.9 13.1 18.9Z" fill="#EFF4FB"/>
<path d="M11.9 25.5C13.7 26.1 15.7 25.1 16.3 23.3C16.4 23.1 16.4 23 16.4 22.8H27.3C27.7 24.7 29.5 26 31.4 25.6C33.3 25.2 34.6 23.4 34.2 21.5C34.1 20.7 33.6 20 33 19.5L39.7 6.90001C41.6 7.40001 43.5 6.40001 44 4.50001C44.5 2.60001 43.5 0.700009 41.6 0.200009C39.7 -0.299991 37.8 0.700009 37.3 2.60001C36.9 4.00001 37.3 5.40001 38.4 6.30001L31.7 18.9C29.9 18.3 27.9 19.4 27.3 21.2C27.3 21.3 27.2 21.4 27.2 21.5H16.3C15.9 19.6 14.1 18.4 12.2 18.8C10.3 19.2 9.1 21 9.5 22.9C9.7 23.6 10 24.3 10.6 24.8L1.4 41V0.800009H0V44.3H43.6V42.9H1.9L11.9 25.5ZM40.8 1.40001C42 1.40001 42.9 2.30001 42.9 3.50001C42.9 4.70001 42 5.60001 40.8 5.60001C39.6 5.60001 38.7 4.70001 38.7 3.50001C38.7 2.30001 39.6 1.40001 40.8 1.40001ZM30.8 20.1C32 20.1 32.9 21 32.9 22.2C32.9 23.4 32 24.3 30.8 24.3C29.6 24.3 28.7 23.4 28.7 22.2C28.7 21 29.7 20.1 30.8 20.1ZM13.1 20.1C14.3 20.1 15.2 21 15.2 22.2C15.2 23.4 14.3 24.3 13.1 24.3C11.9 24.3 11 23.4 11 22.2C10.9 21 11.9 20.1 13.1 20.1Z" fill="#3274CC"/>
</g>
<defs>
<clipPath id="clip0_364_83">
<rect width="44.3" height="44.3" fill="white"/>
</clipPath>
</defs>
</svg>
