<svg width="50" height="50" viewBox="0 0 50 50" fill="none" xmlns="http://www.w3.org/2000/svg">
<g clip-path="url(#clip0_364_73)">
<path d="M4.375 12.6033L8.95833 3.71904H41.0417L45.625 12.6033L25 43.3885L4.375 12.6033Z" fill="#EFF4FB"/>
<path d="M43.3333 0H6.66667L0 12.8099L25 50L50 12.8099L43.3333 0ZM32.7083 13.6364L25 45.4545L16.6667 13.6364H32.7083ZM17.0833 11.9835L25 2.06612L32.9167 11.9835H17.0833ZM26.6667 1.44628H41.25L33.9583 10.7438L26.6667 1.44628ZM15.625 11.5702L8.75 1.44628H23.5417L15.625 11.5702ZM14.1667 11.9835H2.08333L7.29167 2.27273L14.1667 11.9835ZM15 13.6364L23.125 44.4215L2.29167 13.6364H15ZM34.375 13.6364H47.7083L26.875 44.6281L34.375 13.6364ZM35 11.9835L42.7083 2.06612L47.9167 11.9835H35Z" fill="#4E8BDC"/>
</g>
<defs>
<clipPath id="clip0_364_73">
<rect width="50" height="50" fill="white"/>
</clipPath>
</defs>
</svg>
