<svg width="38" height="59" viewBox="0 0 38 59" fill="none" xmlns="http://www.w3.org/2000/svg">
<path d="M14.2332 37.9883C12.0211 29.0958 3.90619 29.5651 4.00082 18.7369C4.0718 10.5483 10.921 3.86141 19.2488 4.00218C27.4347 4.13123 34 10.7595 34 18.8777C34 29.6355 25.9797 29.1193 23.7676 38L14.2332 37.9883Z" fill="#EFF4FB"/>
<path d="M19.3116 0.00226717C8.80369 -0.159073 0.0931879 8.3113 0.00101331 18.8445C-0.114205 32.1321 9.63326 32.1321 10.3361 40.3374H9.48348V51.4814H10.6126C11.1196 56.1142 15.2905 59.4562 19.9223 58.9491C23.8512 58.5227 26.9621 55.4112 27.3884 51.4814H28.5175V40.3374H27.6649C28.3678 32.1436 38 32.2012 38 19.0174C38 8.54178 29.6006 0.175132 19.3116 0.00226717ZM19.0005 57.1514C15.7168 57.1514 12.94 54.7312 12.4792 51.4814H25.5334C25.061 54.7312 22.2842 57.1514 19.0005 57.1514ZM26.6625 49.6375H11.3385V46.8371H26.6625V49.6375ZM11.3385 44.9932V42.1928H26.6625V44.9932H11.3385ZM25.8099 40.3374H19.9223V27.0844H24.2084V25.2405H13.7811V27.0844H18.0788V40.3374H12.2026C11.5228 31.0027 1.75233 31.406 1.85603 18.856C1.93668 9.38306 9.78304 1.70787 19.2886 1.85768C28.5521 2.0075 36.1565 9.55592 36.1565 19.0174C36.1565 31.5443 26.4897 31.0027 25.8099 40.3374Z" fill="#4E8BDC"/>
</svg>
