<svg width="47" height="50" viewBox="0 0 47 50" fill="none" xmlns="http://www.w3.org/2000/svg">
<path d="M27.2217 50H19.5656L17.6516 43.8034C14.6742 42.9487 12.1222 41.453 9.99547 39.3162L3.61538 40.812L0 34.188L4.46606 29.4872C3.82805 26.4957 3.82805 23.5043 4.46606 20.5128L0 15.812L3.82805 9.40171L10.2081 10.8974C12.3348 8.76068 15.0995 7.26496 17.8643 6.41026L19.5656 0H27.009L28.9231 6.19658C31.9005 7.05128 34.4525 8.54701 36.7919 10.6838L43.1719 9.18804L47 15.5983L42.5339 20.2991C43.1719 23.2906 43.1719 26.2821 42.5339 29.2735L46.7873 34.188L42.9593 40.5983L36.5792 39.1026C34.4525 41.2393 31.6878 42.735 28.9231 43.5897L27.2217 50ZM20.8416 48.2906H25.9457L27.8597 42.3077C31.0498 41.453 33.6018 40.1709 36.3665 37.3932L42.3213 38.6752L44.8733 34.188L40.6199 29.7009C41.0452 28.4188 41.2579 26.9231 41.2579 24.7863C41.2579 22.8632 41.0452 21.3675 40.6199 19.8718L44.8733 15.3846L42.3213 10.8974L36.3665 12.1795C34.0271 9.82906 31.6878 8.33333 27.8597 7.26496L25.9457 1.28205H20.8416L18.9276 7.47863C15.7376 8.33333 13.1855 9.61539 10.4208 12.3932L4.46606 11.1111L1.91403 15.5983L6.16742 20.0855C5.74208 21.3675 5.52941 22.8632 5.52941 25C5.52941 26.9231 5.74208 28.4188 6.16742 29.9145L1.91403 34.4017L4.46606 38.8889L10.4208 37.6068C12.7602 39.9573 15.0995 41.453 18.9276 42.5214L20.8416 48.2906ZM23.3937 35.2564C17.8643 35.2564 13.1855 30.7692 13.1855 25C13.1855 19.2308 17.8643 14.7436 23.3937 14.7436C28.9231 14.7436 33.6018 19.2308 33.6018 25C33.6018 30.5556 28.9231 35.2564 23.3937 35.2564ZM23.3937 16.453C18.7149 16.453 14.8869 20.2991 14.8869 25C14.8869 29.7009 18.7149 33.547 23.3937 33.547C28.0724 33.547 31.9005 29.7009 31.9005 25C31.9005 20.2991 28.0724 16.453 23.3937 16.453Z" fill="#3274CC"/>
</svg>
